# ProBuilder 5.0.7
# https://unity3d.com/unity/features/worldbuilding/probuilder
# 10.11.2023 16:31:46

mtllib ./Screen.mtl
o Screen

g Screen
v 2.017859 0 1
v -1.888925 0 1.000005
v 2.017863 2.708223 1.000006
v -1.888921 2.708223 1.000011
v -1.888926 0 2.032985E-06
v -1.888924 2.708223 5.229175E-06
v 2.01786 0 7.949138E-07
v 2.017864 2.708223 7.187293E-06

vt 2.017858 2.376953E-06
vt -1.888926 2.376953E-06
vt 2.017862 2.708226
vt -1.888922 2.708226
vt 1.000003 -2.910101E-06
vt 6.819238E-07 -2.910101E-06
vt 1.00001 2.70822
vt 3.878115E-06 2.70822
vt 1.888926 1.692825E-12
vt -2.01786 1.692825E-12
vt 1.888924 2.708223
vt -2.017864 2.708223
vt -0.9999971 3.019928E-06
vt -1.000004 2.708226
vt -2.017863 1.000006
vt 1.888921 1.000011
vt 2.017859 1
vt -1.888925 1.000005

vn 1.15951E-06 -2.376948E-06 1
vn -1 1.540612E-06 7.15254E-07
vn -3.169029E-07 1.18018E-06 -1
vn 1 -1.496599E-06 1.430513E-06
vn 0 1 0
vn 0 -1 0

usemtl ProBuilderDefault
f 3/3/1 4/4/1 2/2/1 1/1/1
f 4/7/2 6/8/2 5/6/2 2/5/2
f 6/11/3 8/12/3 7/10/3 5/9/3
f 8/8/4 3/14/4 1/13/4 7/6/4
f 8/10/5 6/9/5 4/16/5 3/15/5
f 1/17/6 2/18/6 5/2/6 7/1/6

